<svg width="55" height="40" viewBox="0 0 55 40" fill="none" xmlns="http://www.w3.org/2000/svg">
<path d="M27.1155 8.13706L7.77441 22.8379C7.77441 22.8586 7.76876 22.8892 7.75744 22.9308C7.74637 22.972 7.74048 23.002 7.74048 23.0233V37.9095C7.74048 38.4469 7.95361 38.9127 8.37975 39.305C8.80578 39.6974 9.31027 39.8949 9.89334 39.8949H22.8096V27.9857H31.4216V39.8954H44.3377C44.9207 39.8954 45.4259 39.6983 45.8513 39.305C46.2775 38.9132 46.4913 38.4471 46.4913 37.9095V23.0233C46.4913 22.9408 46.4791 22.8784 46.4574 22.8379L27.1155 8.13706Z" fill="#F5F5F7"/>
<path d="M53.8567 19.4883L46.4905 13.8439V1.19046C46.4905 0.90119 46.3897 0.6633 46.1873 0.477116C45.9865 0.291149 45.7285 0.198166 45.414 0.198166H38.9558C38.6417 0.198166 38.3838 0.291149 38.1817 0.477116C37.9801 0.6633 37.8794 0.901299 37.8794 1.19046V7.23797L29.6721 0.911075C28.9553 0.373487 28.103 0.104748 27.1162 0.104748C26.1294 0.104748 25.2773 0.373487 24.5598 0.911075L0.37378 19.4883C0.149575 19.6534 0.0266922 19.8757 0.00383581 20.1548C-0.0189028 20.4338 0.0594453 20.6774 0.239116 20.8841L2.32459 23.1791C2.50426 23.3651 2.73942 23.4788 3.03102 23.5204C3.30023 23.5412 3.56944 23.4687 3.83865 23.3034L27.1155 5.40817L50.3925 23.3032C50.5723 23.4475 50.8073 23.5195 51.0989 23.5195H51.2C51.4911 23.4787 51.7258 23.3642 51.9064 23.1787L53.9921 20.8839C54.1715 20.6769 54.25 20.4337 54.2267 20.1544C54.2037 19.876 54.0804 19.6538 53.8567 19.4883Z" fill="#F5F5F7"/>
</svg>
