<svg width="55" height="40" viewBox="0 0 55 40" fill="none" xmlns="http://www.w3.org/2000/svg">
<path d="M8.71837 38.9372L8.71822 38.9371C8.38617 38.6315 8.24033 38.2957 8.24033 37.9095V23.1117L27.1154 8.7651L45.9912 23.1117V37.9095C45.9912 38.2955 45.8449 38.6316 45.5128 38.9369L45.5118 38.9378C45.1794 39.2452 44.7956 39.3954 44.3376 39.3954H31.9215V27.9857V27.4857H31.4215H22.8094H22.3094V27.9857V39.3949H9.89319C9.4355 39.3949 9.05198 39.2446 8.71837 38.9372Z" stroke="#F5F5F7"/>
<path d="M53.5524 19.8853L53.5525 19.8852L46.1863 14.2408L45.9905 14.0907V13.8439V1.19046C45.9905 1.03231 45.9419 0.930859 45.8487 0.845113L45.8474 0.843924C45.753 0.756465 45.6228 0.698166 45.414 0.698166H38.9557C38.7482 0.698166 38.6172 0.755991 38.5208 0.844534C38.428 0.930298 38.3794 1.03216 38.3794 1.19046V7.23797V8.25473L37.5741 7.63396L29.372 1.31108C29.3712 1.31045 29.3703 1.30983 29.3695 1.3092C28.7486 0.844414 28.0052 0.604748 27.1161 0.604748C26.2271 0.604748 25.4836 0.844428 24.8618 1.30949L0.678293 19.8848L0.67027 19.891L0.670209 19.8909C0.563995 19.9691 0.513362 20.0586 0.502122 20.1955L53.5524 19.8853ZM53.5524 19.8853L53.5593 19.8904M53.5524 19.8853L53.5593 19.8904M46.1872 0.477116C46.3896 0.6633 46.4905 0.90119 46.4905 1.19046V13.8439L53.8566 19.4883L46.1872 0.477116ZM46.1872 0.477116C45.9864 0.291149 45.7284 0.198166 45.414 0.198166H38.9557C38.6416 0.198166 38.3837 0.291149 38.1817 0.477116H46.1872ZM53.5593 19.8904C53.6664 19.9696 53.7172 20.0599 53.7283 20.1955L53.7284 20.196C53.7406 20.342 53.7045 20.4506 53.6175 20.5527L51.543 22.8351C51.4542 22.9241 51.3356 22.9899 51.1617 23.0195H51.0989C50.8904 23.0195 50.7751 22.9693 50.7053 22.9133L50.7054 22.9132L50.6972 22.9069L27.4201 5.01178L27.1154 4.77749M53.5593 19.8904L27.1154 4.77749M27.1154 4.77749L26.8106 5.01178M27.1154 4.77749L26.8106 5.01178M26.8106 5.01178L3.55621 22.8898C3.37646 22.9958 3.22234 23.0304 3.08486 23.0229C2.90007 22.9937 2.77767 22.9265 2.68866 22.8363L0.613296 20.5524M26.8106 5.01178L0.613296 20.5524M0.613296 20.5524C0.526731 20.4514 0.490174 20.3425 0.502107 20.1956L0.613296 20.5524Z" stroke="#F5F5F7"/>
</svg>
