<svg width="233" height="233" viewBox="0 0 233 233" fill="none" xmlns="http://www.w3.org/2000/svg">
<g clip-path="url(#clip0_17_2)">
<path d="M155.333 116.5V116.49C155.333 95.0446 137.946 77.657 116.5 77.657C95.0545 77.657 77.6668 95.0446 77.6668 116.49C77.6668 137.936 95.0545 155.324 116.5 155.324C127.218 155.324 136.926 150.974 143.955 143.955C150.974 137.15 155.333 127.626 155.333 117.083C155.333 116.879 155.333 116.675 155.324 116.471L155.333 116.5ZM176.303 116.5C176.187 149.305 149.567 175.857 116.743 175.857C83.851 175.857 57.1822 149.188 57.1822 116.296C57.1822 83.4044 83.851 56.7356 116.743 56.7356C133.189 56.7356 148.081 63.4052 158.858 74.1814C169.624 84.6664 176.313 99.2969 176.313 115.5C176.313 115.85 176.313 116.209 176.303 116.558V116.51V116.5ZM192.681 54.3085V54.3279C192.681 62.046 186.42 68.3079 178.701 68.3079C170.983 68.3079 164.721 62.046 164.721 54.3279C164.721 46.6098 170.983 40.3479 178.701 40.3479C182.565 40.3479 186.06 41.9109 188.585 44.4448C191.07 46.8816 192.613 50.2795 192.613 54.0366V54.3182L192.681 54.3085ZM116.568 20.9118L104.967 20.8342C97.9378 20.7824 92.6015 20.7824 88.9576 20.8342C85.3138 20.8859 80.4337 21.038 74.3175 21.2904C68.6381 21.4846 63.25 22.0477 57.9783 22.9409L58.687 22.8438C54.561 23.5234 50.901 24.4942 47.3963 25.7854L47.8137 25.6495C37.6782 29.7755 29.7853 37.6587 25.7564 47.5321L25.6593 47.7942C24.504 50.8814 23.5332 54.5415 22.9021 58.3083L22.8536 58.6675C22.0575 63.2207 21.4944 68.6089 21.31 74.0941L21.3002 74.2979C21.0478 80.4207 20.8957 85.3007 20.844 88.9381C20.7922 92.5755 20.7922 97.9118 20.844 104.947C20.8957 111.982 20.9216 115.85 20.9216 116.549C20.9216 117.248 20.8957 121.115 20.844 128.15C20.7922 135.185 20.7922 140.522 20.844 144.159C20.8957 147.796 21.0478 152.677 21.3002 158.799C21.4944 164.479 22.0575 169.867 22.9507 175.138L22.8536 174.43C23.5332 178.556 24.504 182.216 25.7952 185.72L25.6593 185.303C29.7853 195.439 37.6685 203.331 47.5419 207.36L47.804 207.457C50.8912 208.613 54.5513 209.584 58.3181 210.215L58.6773 210.263C63.2305 211.059 68.6187 211.622 74.0942 211.807L74.298 211.816C80.4208 212.069 85.3008 212.221 88.9382 212.273C92.5756 212.325 97.9119 212.325 104.947 212.273L116.481 212.04L128.082 212.117C135.111 212.169 140.447 212.169 144.091 212.117C147.735 212.066 152.615 211.914 158.731 211.661C164.411 211.467 169.799 210.904 175.071 210.011L174.362 210.108C178.488 209.428 182.148 208.457 185.653 207.166L185.235 207.302C195.371 203.176 203.264 195.293 207.292 185.42L207.39 185.157C208.545 182.07 209.516 178.41 210.147 174.643L210.195 174.284C210.991 169.731 211.554 164.343 211.739 158.867L211.749 158.663C212.001 152.541 212.153 147.661 212.205 144.023C212.257 140.386 212.257 135.049 212.205 128.014C212.153 120.979 212.127 117.112 212.127 116.413C212.127 115.714 212.153 111.847 212.205 104.811C212.257 97.7759 212.257 92.4396 212.205 88.8022C212.153 85.1648 212.001 80.2847 211.749 74.162C211.554 68.4826 210.991 63.0945 210.098 57.8229L210.195 58.5316C209.516 54.4056 208.545 50.7455 207.254 47.2408L207.39 47.6583C203.264 37.5228 195.38 29.6299 185.507 25.6009L185.245 25.5039C182.158 24.3486 178.498 23.3777 174.731 22.7467L174.372 22.6982C169.818 21.9021 164.43 21.339 158.955 21.1545L158.751 21.1448C152.628 20.8924 147.748 20.7403 144.111 20.6885C140.473 20.6367 135.137 20.6367 128.102 20.6885L116.568 20.9118ZM233 116.5C233 139.658 232.741 155.686 232.223 164.585C232.272 165.566 232.311 166.712 232.311 167.857C232.311 203.458 203.448 232.32 167.848 232.32C166.692 232.32 165.547 232.291 164.411 232.233L164.566 232.243C155.667 232.761 139.638 233.019 116.481 233.019C93.3231 233.019 77.2947 232.761 68.3954 232.243C67.4148 232.291 66.2693 232.33 65.1237 232.33C29.5232 232.33 0.660334 203.467 0.660334 167.867C0.660334 166.712 0.689459 165.566 0.747709 164.43L0.738001 164.585C0.220223 155.686 -0.0386658 139.658 -0.0386658 116.5C-0.0386658 93.3425 0.220223 77.314 0.738001 68.4147C0.689459 67.4341 0.650626 66.2886 0.650626 65.143C0.650626 29.5425 29.5135 0.679652 65.114 0.679652C66.2692 0.679652 67.4148 0.708777 68.5507 0.767027L68.3954 0.757318C77.2947 0.239541 93.3231 -0.0193481 116.481 -0.0193481C139.638 -0.0193481 155.667 0.239541 164.566 0.757318C165.547 0.708777 166.692 0.669943 167.838 0.669943C203.438 0.669943 232.301 29.5328 232.301 65.1333C232.301 66.2886 232.272 67.4342 232.214 68.57L232.223 68.4147C232.741 77.3075 233 93.336 233 116.5Z" fill="black"/>
</g>
<defs>
<clipPath id="clip0_17_2">
<rect width="233" height="233" fill="white"/>
</clipPath>
</defs>
</svg>
