<svg width="50" height="34" viewBox="0 0 50 34" fill="none" xmlns="http://www.w3.org/2000/svg">
<path d="M12.1001 0.5C11.0867 0.5 10.0664 0.825 9.35128 1.48438C8.63611 2.14375 8.30056 3.07813 8.30056 4.00313V8.50313H4.50441C3.49097 8.50313 2.47075 8.82813 1.75897 9.4875C1.04719 10.1469 0.708252 11.0813 0.708252 12.0063V30.0063C0.708252 30.9312 1.04719 31.8594 1.75897 32.525C2.47075 33.1906 3.49436 33.5094 4.50441 33.5094H38.1275C39.1409 33.5094 40.1611 33.1844 40.8729 32.525C41.5847 31.8656 41.9236 30.9344 41.9236 30.0063V25.5063H45.7198C46.7332 25.5063 47.7534 25.1812 48.4652 24.5219C49.177 23.8625 49.5159 22.9312 49.5159 22.0031V4.00313C49.5159 3.07813 49.177 2.15 48.4652 1.48438C47.7534 0.81875 46.7298 0.5 45.7198 0.5H12.0967H12.1001ZM12.1001 3.5H45.7232C46.0452 3.5 46.1231 3.55625 46.1638 3.59375C46.2045 3.63125 46.2655 3.70625 46.2655 4V22C46.2655 22.2938 46.2045 22.3563 46.1638 22.3906C46.1231 22.425 46.0452 22.5 45.7232 22.5H41.927V12C41.927 11.075 41.5881 10.1469 40.8763 9.48125C40.1645 8.81563 39.1409 8.49687 38.1309 8.49687H11.5578V3.99688C11.5578 3.70313 11.6222 3.62813 11.6595 3.59063C11.6968 3.55313 11.7781 3.49687 12.1001 3.49687V3.5ZM7.52438 11.5H35.1109L21.9599 20.8C21.5702 21.075 21.8481 21.0031 21.3159 21.0031C20.7838 21.0031 21.0617 21.075 20.672 20.8L7.52099 11.5H7.52438ZM3.96549 12.7656L18.7095 23.1844C19.4077 23.6781 20.411 23.9969 21.3193 23.9969C22.2277 23.9969 23.2344 23.6781 23.9292 23.1844L38.6732 12.7625V30C38.6732 30.2938 38.6122 30.3563 38.5715 30.3906C38.5308 30.425 38.4529 30.5 38.1309 30.5H4.5078C4.1858 30.5 4.10784 30.4281 4.06717 30.3906C4.0265 30.3531 3.96549 30.2938 3.96549 30V12.7625V12.7656Z" fill="#F5F5F7"/>
</svg>
