<svg width="100" height="101" viewBox="0 0 100 101" fill="none" xmlns="http://www.w3.org/2000/svg">
<path fill-rule="evenodd" clip-rule="evenodd" d="M37.1207 81.1063C37.8509 81.4099 38.5943 81.6883 39.3497 81.9403C42.6626 83.0457 46.2073 83.6444 49.8919 83.6444C68.2753 83.6444 83.178 68.7416 83.178 50.3582C83.178 31.9748 68.2753 17.0721 49.8919 17.0721C31.5085 17.0721 16.6058 31.9748 16.6058 50.3582C16.6058 60.6289 21.2575 69.8131 28.569 75.919C29.4569 76.6606 30.3841 77.3567 31.347 78.0039L30.8185 84.045L37.1207 81.1063ZM8.29044 50.3582C8.29044 62.9296 13.872 74.195 22.6666 81.8141L22.5348 83.3203L21.2795 97.668L34.3327 91.5813L37.5306 90.09C41.4433 91.3063 45.5974 91.9597 49.8919 91.9597C72.8677 91.9597 91.4933 73.3341 91.4933 50.3582C91.4933 27.3824 72.8677 8.75677 49.8919 8.75677C26.916 8.75677 8.29044 27.3824 8.29044 50.3582ZM30.5146 60.323L41.6148 40.7865C41.8675 40.3419 42.4579 40.2285 42.8573 40.548L54.5695 49.9178C54.8732 50.1607 55.3047 50.1607 55.6084 49.9178L68.5147 39.5927C68.8875 39.2945 69.3869 39.7571 69.118 40.1516L55.5946 59.9859C55.3218 60.386 54.7662 60.4693 54.3881 60.1668L42.6656 50.7888C42.3398 50.5282 41.8713 50.5493 41.5703 50.8383L31.164 60.8284C30.8181 61.1604 30.2777 60.7399 30.5146 60.323Z" fill="black"/>
</svg>
