<svg width="47" height="50" viewBox="0 0 47 50" fill="none" xmlns="http://www.w3.org/2000/svg">
<path d="M23.1154 50C26.0981 50 28.5385 47.75 28.5385 45H17.6923C17.6923 47.75 20.1327 50 23.1154 50ZM40.7404 35V21.25C40.7404 13.5 35.0462 7.25 27.1827 5.5V3.75C27.1827 1.75 25.2846 0 23.1154 0C20.9462 0 19.0481 1.75 19.0481 3.75V5.5C11.1846 7.25 5.49038 13.5 5.49038 21.25V35L0.0673065 40V42.5H46.1635V40L40.7404 35ZM35.3173 37.5H10.9135V21.25C10.9135 15 16.3365 10 23.1154 10C29.8942 10 35.3173 15 35.3173 21.25V37.5Z" fill="#F5F5F7"/>
</svg>
