<svg width="55" height="50" viewBox="0 0 55 50" fill="none" xmlns="http://www.w3.org/2000/svg">
<path d="M31.2977 26.556C27.3617 26.556 23.162 26.5056 18.5783 26.4033C17.6911 26.3844 16.9871 25.6633 17.008 24.7942C17.0273 23.9377 17.7441 23.2544 18.6136 23.2544C18.6265 23.2544 18.6393 23.2544 18.6506 23.2544C25.0457 23.3945 30.687 23.4386 35.8991 23.3819C35.9056 23.3819 35.912 23.3819 35.9168 23.3819C36.796 23.3819 37.5144 24.0747 37.524 24.939C37.5337 25.8081 36.8217 26.5214 35.9345 26.5308C34.4269 26.5481 32.884 26.556 31.2977 26.556Z" fill="#F5F5F7"/>
<path d="M27.1881 34.9557C27.1752 34.9557 27.1624 34.9557 27.1511 34.9557C26.2639 34.9368 25.56 34.2157 25.5809 33.3466C25.7255 27.0819 25.7689 21.554 25.7111 16.4497C25.7014 15.5806 26.4134 14.8674 27.3006 14.858C27.307 14.858 27.3134 14.858 27.3183 14.858C28.1974 14.858 28.9158 15.5507 28.9255 16.4151C28.9833 21.5556 28.9415 27.1181 28.7937 33.4174C28.7744 34.2739 28.0592 34.9557 27.1881 34.9557Z" fill="#F5F5F7"/>
<path d="M41.5742 50C40.6441 50 38.4257 49.9874 35.5793 49.9715C28.5456 49.932 17.6554 49.8688 12.8751 49.9241C12.8751 49.9241 12.8751 49.9241 12.8735 49.9241C7.56106 49.9241 0.359519 46.3634 0.34034 39.6798C0.330751 36.1902 0.359519 33.1732 0.386689 30.2684C0.42984 25.644 0.471394 21.2757 0.348331 15.7158C0.142162 6.4197 4.27354 0.839208 11.6829 0.40459C15.7327 0.165946 23.2795 0 30.0367 0C36.6949 0 45.1111 0.148561 47.3981 0.859754C51.5119 2.13674 53.8517 6.53507 54.2832 10.0815C54.7786 14.1338 54.5101 28.0257 54.3663 35.4901C54.3247 37.6079 54.2944 39.1978 54.2944 39.871C54.2944 42.7221 53.0126 45.3125 50.684 47.1695C48.3602 49.0217 45.2085 50 41.5742 50ZM18.0102 46.7443C23.3722 46.7443 30.497 46.7838 35.5969 46.8123C38.4353 46.8281 40.6456 46.8407 41.5742 46.8407C44.4302 46.8407 46.9538 46.0837 48.6783 44.7103C50.2621 43.4491 51.098 41.777 51.098 39.8758C51.098 39.1914 51.1283 37.5794 51.1699 35.4316C51.3121 28.0447 51.5774 14.295 51.1091 10.4609C50.7863 7.80889 49.0778 4.69545 46.4408 3.87679C45.3284 3.53068 40.4347 3.16244 30.0351 3.16244C23.3338 3.16244 15.8654 3.3268 11.8698 3.5607C4.77538 3.97794 3.42489 10.3644 3.54316 15.6478C3.66782 21.2568 3.62626 25.6488 3.58151 30.3C3.55434 33.1937 3.52558 36.1965 3.53517 39.6719C3.54795 44.2393 8.99466 46.7664 12.7537 46.7664C14.1681 46.7506 15.9597 46.7443 18.0102 46.7443Z" fill="#F5F5F7"/>
</svg>
