<svg width="55" height="50" viewBox="0 0 55 50" fill="none" xmlns="http://www.w3.org/2000/svg">
<path d="M27.7077 24.7875C30.8361 24.7875 33.8942 24.0607 36.4953 22.6988C39.0965 21.337 41.1238 19.4013 42.321 17.1367C43.5182 14.872 43.8314 12.38 43.2211 9.97587C42.6108 7.57171 41.1043 5.36336 38.8922 3.63006C36.6801 1.89676 33.8618 0.716365 30.7935 0.238148C27.7253 -0.240068 24.5449 0.00537001 21.6547 0.943425C18.7644 1.88148 16.2941 3.47002 14.5561 5.50816C12.8181 7.54631 11.8904 9.94252 11.8904 12.3938C11.8904 15.6808 13.5569 18.8332 16.5232 21.1575C19.4895 23.4818 23.5127 24.7875 27.7077 24.7875ZM27.7077 3.54108C29.9423 3.54108 32.1266 4.06028 33.9846 5.03303C35.8425 6.00578 37.2906 7.38838 38.1458 9.00599C39.0009 10.6236 39.2246 12.4036 38.7887 14.1208C38.3528 15.8381 37.2767 17.4155 35.6966 18.6536C34.1166 19.8916 32.1035 20.7348 29.9118 21.0764C27.7202 21.4179 25.4486 21.2426 23.3841 20.5726C21.3197 19.9026 19.5551 18.7679 18.3137 17.3121C17.0722 15.8562 16.4096 14.1447 16.4096 12.3938C16.4096 10.0459 17.6 7.79418 19.7188 6.13398C21.8376 4.47377 24.7113 3.54108 27.7077 3.54108V3.54108Z" fill="#F5F5F7"/>
<path d="M29.9673 28.7535H25.4481C18.8559 28.7535 12.5337 30.8055 7.87239 34.4579C3.21103 38.1103 0.5923 43.0641 0.5923 48.2295C0.5923 48.699 0.830367 49.1494 1.25413 49.4814C1.67789 49.8135 2.25263 50 2.85192 50H52.5635C53.1627 50 53.7375 49.8135 54.1612 49.4814C54.585 49.1494 54.8231 48.699 54.8231 48.2295C54.8231 43.0641 52.2043 38.1103 47.543 34.4579C42.8816 30.8055 36.5595 28.7535 29.9673 28.7535ZM5.24711 46.4589C5.80274 42.5649 8.16995 38.9678 11.8964 36.3549C15.6229 33.742 20.4474 32.2965 25.4481 32.2946H29.9673C34.968 32.2965 39.7925 33.742 43.5189 36.3549C47.2454 38.9678 49.6126 42.5649 50.1683 46.4589H5.24711Z" fill="#F5F5F7"/>
</svg>
