<svg width="55" height="50" viewBox="0 0 55 50" fill="none" xmlns="http://www.w3.org/2000/svg">
<path fill-rule="evenodd" clip-rule="evenodd" d="M36.1478 37.558C32.3072 40.1723 44.2496 28.9411 40.8513 33.2105C40.9363 33.2042 40.7787 33.4409 40.2503 34.0343C40.2503 34.0343 49.3261 42.3247 53.7813 46.5439C55.3279 48.0821 52.5374 51.1522 50.6415 49.5493C46.607 45.9495 37.0606 37.0032 37.0458 36.9886L36.1478 37.558Z" fill="#F5F5F7"/>
<path d="M22.812 41.7503C28.6516 41.6982 34.4323 39.4738 38.5892 35.6957C43.5263 31.2085 46.0686 24.5699 45.1818 18.2316C43.6624 7.37065 33.9538 0 22.6668 0C14.091 0 5.75674 4.93358 2.101 12.0873C-0.697499 17.5642 -0.703168 24.1767 2.101 29.663C5.73066 36.7667 13.9289 41.6742 22.5205 41.7503C22.6181 41.7503 22.7156 41.7503 22.812 41.7503ZM22.5444 38.2704C13.8234 38.1933 5.68644 31.9906 4.06835 24.038C2.92763 18.4318 5.08093 12.3647 9.5667 8.38323C14.8031 3.73329 23.0342 2.17636 29.8785 4.81157C36.0017 7.16938 40.5849 12.6442 41.4297 18.6759C42.1531 23.8462 40.1359 29.2646 36.1717 32.9969C32.694 36.2714 27.8171 38.2256 22.7881 38.2704C22.7065 38.2704 22.626 38.2704 22.5444 38.2704Z" fill="#F5F5F7"/>
</svg>
