<svg width="101" height="101" viewBox="0 0 101 101" fill="none" xmlns="http://www.w3.org/2000/svg">
<path fill-rule="evenodd" clip-rule="evenodd" d="M17.0359 46.1757C17.0359 30.1022 30.066 17.0721 46.1395 17.0721C62.213 17.0721 75.2431 30.1022 75.2431 46.1757C75.2431 62.2492 62.213 75.2793 46.1395 75.2793C30.066 75.2793 17.0359 62.2492 17.0359 46.1757ZM46.1395 8.75677C25.4736 8.75677 8.72058 25.5098 8.72058 46.1757C8.72058 66.8416 25.4736 83.5946 46.1395 83.5946C56.0633 83.5946 65.0848 79.7315 71.7822 73.427C71.9318 73.6511 72.1054 73.8638 72.3032 74.0615L88.9338 90.6922C90.5575 92.3158 93.19 92.3158 94.8136 90.6922C96.4373 89.0685 96.4373 86.436 94.8136 84.8124L78.183 68.1817C77.8283 67.827 77.4254 67.5498 76.9954 67.35C81.1353 61.3287 83.5584 54.0352 83.5584 46.1757C83.5584 25.5098 66.8054 8.75677 46.1395 8.75677Z" fill="black"/>
</svg>
