<svg width="15" height="18" viewBox="0 0 15 18" fill="none" xmlns="http://www.w3.org/2000/svg">
<path d="M7.5 11.9036C5.45872 11.9036 3.80734 10.7465 3.80734 9.33573V3.56601C3.80734 2.13943 5.45872 0.998169 7.5 0.998169C9.54128 0.998169 11.1927 2.15528 11.1927 3.56601V9.31988C11.1927 10.7465 9.54128 11.9036 7.5 11.9036ZM12.5229 7.70309H15V9.89051C15 12.3315 12.2248 14.3446 8.73853 14.4873V16.2784H12.4541V17.9903H2.54587V16.2784H6.26147V14.4873C2.77523 14.3446 0 12.3315 0 9.89051V7.70309H2.47706V9.89051C2.47706 11.4914 4.3578 12.7754 6.65138 12.7754H8.32569C10.6422 12.7754 12.5 11.4756 12.5 9.89051V7.70309H12.5229Z" fill="#F5F5F7"/>
</svg>
