<svg width="17" height="17" viewBox="0 0 17 17" fill="none" xmlns="http://www.w3.org/2000/svg">
<path d="M2.48003 3.31706L2.97002 5.27915C3.03234 5.53555 2.99071 5.80618 2.85419 6.03201C2.71768 6.25785 2.49736 6.42057 2.2413 6.48469C1.98523 6.54881 1.71419 6.50912 1.48728 6.37429C1.26037 6.23945 1.096 6.02041 1.03003 5.76492L0.0300253 1.76677C-0.0161116 1.58347 -0.00930171 1.39084 0.0496647 1.21124C0.108631 1.03165 0.217337 0.872445 0.363169 0.752108C0.509001 0.631771 0.685982 0.555233 0.873576 0.531372C1.06117 0.507512 1.25169 0.537309 1.42302 0.617305L16.423 7.61407C16.5957 7.69443 16.7417 7.82239 16.8441 7.9829C16.9464 8.14342 17.0008 8.3298 17.0008 8.52015C17.0008 8.71049 16.9464 8.89688 16.8441 9.05739C16.7417 9.2179 16.5957 9.34586 16.423 9.42623L1.42302 16.423C1.24929 16.5041 1.05589 16.5336 0.865862 16.5079C0.675833 16.4823 0.497193 16.4025 0.35123 16.2782C0.205268 16.1539 0.0981373 15.9903 0.0426061 15.8069C-0.012925 15.6234 -0.014515 15.4279 0.0380252 15.2435L2.03803 8.24677C2.09762 8.03771 2.22377 7.85376 2.39737 7.72281C2.57097 7.59186 2.78254 7.52105 3.00003 7.52111H7.00003C7.26524 7.52111 7.5196 7.62642 7.70713 7.81387C7.89467 8.00132 8.00002 8.25555 8.00002 8.52065C8.00002 8.78574 7.89467 9.03998 7.70713 9.22743C7.5196 9.41488 7.26524 9.52018 7.00003 9.52018H3.75403L2.56403 13.6853L13.635 8.52065L2.48003 3.31706Z" fill="#F5F5F7"/>
</svg>
