<svg width="20" height="20" viewBox="0 0 20 20" fill="none" xmlns="http://www.w3.org/2000/svg">
<path d="M18.1786 20C17.9557 19.9987 17.736 19.9415 17.5357 19.8327L13.4 17.5229H5.71429C4.19876 17.5229 2.74531 16.8516 1.67368 15.6566C0.602039 14.4616 0 12.8409 0 11.1509V6.37196C0 4.68201 0.602039 3.06128 1.67368 1.8663C2.74531 0.67133 4.19876 0 5.71429 0H14.2857C15.8012 0 17.2547 0.67133 18.3263 1.8663C19.398 3.06128 20 4.68201 20 6.37196V11.1509C19.9995 12.5469 19.588 13.9041 18.8286 15.0139L19.5429 17.9849C19.6008 18.2201 19.6096 18.4671 19.5685 18.7067C19.5273 18.9463 19.4373 19.1722 19.3055 19.3669C19.1737 19.5616 19.0035 19.7199 18.8081 19.8297C18.6127 19.9395 18.3974 19.9977 18.1786 20ZM5.71429 1.59299C4.57764 1.59299 3.48756 2.09649 2.68383 2.99272C1.8801 3.88895 1.42857 5.1045 1.42857 6.37196V11.1509C1.42857 12.4184 1.8801 13.6339 2.68383 14.5302C3.48756 15.4264 4.57764 15.9299 5.71429 15.9299H13.5714C13.6832 15.9307 13.7933 15.9607 13.8929 16.0175L18.1786 18.407L17.35 15.0299C17.3199 14.9028 17.3185 14.7693 17.346 14.6415C17.3734 14.5136 17.4288 14.3953 17.5071 14.2971C18.192 13.4268 18.5702 12.3088 18.5714 11.1509V6.37196C18.5714 5.1045 18.1199 3.88895 17.3162 2.99272C16.5124 2.09649 15.4224 1.59299 14.2857 1.59299H5.71429Z" fill="#F5F5F7"/>
<path d="M15.7141 12.0351H4.28557C4.09613 12.0351 3.91445 11.9512 3.7805 11.8018C3.64654 11.6524 3.57129 11.4498 3.57129 11.2386C3.57129 11.0273 3.64654 10.8247 3.7805 10.6754C3.91445 10.526 4.09613 10.4421 4.28557 10.4421H15.7141C15.9036 10.4421 16.0853 10.526 16.2192 10.6754C16.3532 10.8247 16.4284 11.0273 16.4284 11.2386C16.4284 11.4498 16.3532 11.6524 16.2192 11.8018C16.0853 11.9512 15.9036 12.0351 15.7141 12.0351Z" fill="#F5F5F7"/>
<path d="M15.7141 7.25608H4.28557C4.09613 7.25608 3.91445 7.17216 3.7805 7.02279C3.64654 6.87342 3.57129 6.67083 3.57129 6.45958C3.57129 6.24834 3.64654 6.04575 3.7805 5.89637C3.91445 5.747 4.09613 5.66309 4.28557 5.66309H15.7141C15.9036 5.66309 16.0853 5.747 16.2192 5.89637C16.3532 6.04575 16.4284 6.24834 16.4284 6.45958C16.4284 6.67083 16.3532 6.87342 16.2192 7.02279C16.0853 7.17216 15.9036 7.25608 15.7141 7.25608Z" fill="#F5F5F7"/>
</svg>
