<svg width="20" height="20" viewBox="0 0 20 20" fill="none" xmlns="http://www.w3.org/2000/svg">
<g clip-path="url(#clip0_96_175)">
<path d="M18.1593 2.60624C16.8749 1.37499 14.8687 0.762485 13.0374 1.04842C11.7187 1.24999 10.6515 1.91561 10.0109 2.91874C9.38585 1.89842 8.35148 1.22499 7.05304 1.00936C5.23898 0.710923 3.14679 1.35155 1.83898 2.60467C1.26132 3.15808 0.800836 3.822 0.484903 4.55694C0.16897 5.29188 0.0040381 6.08284 -8.68088e-05 6.8828C-0.00953849 7.7126 0.147986 8.53583 0.463117 9.30353C0.778248 10.0712 1.24455 10.7677 1.83429 11.3515L9.21866 18.7406C9.32034 18.8431 9.44131 18.9245 9.5746 18.98C9.70788 19.0356 9.85084 19.0641 9.99523 19.0641C10.1396 19.0641 10.2826 19.0356 10.4159 18.98C10.5491 18.9245 10.6701 18.8431 10.7718 18.7406L18.1609 11.35C18.7512 10.7667 19.2183 10.0707 19.5342 9.30324C19.8502 8.53581 20.0085 7.71267 19.9999 6.8828C19.9954 6.08299 19.8301 5.29226 19.5139 4.55759C19.1977 3.82293 18.737 3.15933 18.1593 2.60624ZM17.4999 10.6875L10.114 18.0781C10.0994 18.0937 10.0817 18.1062 10.0621 18.1147C10.0425 18.1232 10.0213 18.1276 9.99991 18.1276C9.97853 18.1276 9.95737 18.1232 9.93775 18.1147C9.91813 18.1062 9.90047 18.0937 9.88585 18.0781L2.49991 10.6875C1.99836 10.1919 1.60158 9.60054 1.33316 8.94854C1.06473 8.29654 0.930152 7.59723 0.937413 6.89217C0.940971 6.2169 1.0803 5.54924 1.34712 4.92891C1.61393 4.30858 2.00278 3.74824 2.49054 3.28124C3.41085 2.3953 4.79991 1.87499 6.1296 1.87499C6.38817 1.87476 6.64632 1.89566 6.90148 1.93749C7.68273 2.06561 8.72491 2.45624 9.31085 3.58749C9.37674 3.71385 9.47556 3.82006 9.59686 3.89487C9.71815 3.96969 9.85742 4.01032 9.99991 4.01249C10.1388 4.01283 10.2752 3.97552 10.3946 3.90454C10.514 3.83356 10.612 3.73155 10.678 3.60936C11.2859 2.48436 12.3687 2.09999 13.1687 1.97499C14.6952 1.73749 16.4343 2.26249 17.4968 3.2828C17.9866 3.74856 18.3777 4.30817 18.6467 4.92827C18.9156 5.54837 19.057 6.21627 19.0624 6.89217C19.0697 7.59723 18.9351 8.29654 18.6667 8.94854C18.3983 9.60054 18.0015 10.1919 17.4999 10.6875Z" fill="#F5F5F7"/>
</g>
<defs>
<clipPath id="clip0_96_175">
<rect width="20" height="20" fill="white"/>
</clipPath>
</defs>
</svg>
