<svg width="20" height="17" viewBox="0 0 20 17" fill="none" xmlns="http://www.w3.org/2000/svg">
<path d="M17.6923 16.9231H2.30769C1.69565 16.9231 1.10868 16.6799 0.675907 16.2472C0.243131 15.8144 0 15.2274 0 14.6154V2.30769C0 1.69565 0.243131 1.10868 0.675907 0.675907C1.10868 0.243131 1.69565 0 2.30769 0H17.6923C18.3043 0 18.8913 0.243131 19.3241 0.675907C19.7569 1.10868 20 1.69565 20 2.30769V14.6154C20 15.2274 19.7569 15.8144 19.3241 16.2472C18.8913 16.6799 18.3043 16.9231 17.6923 16.9231ZM2.30769 1.53846C2.10368 1.53846 1.90802 1.61951 1.76376 1.76376C1.61951 1.90802 1.53846 2.10368 1.53846 2.30769V14.6154C1.53846 14.8194 1.61951 15.0151 1.76376 15.1593C1.90802 15.3036 2.10368 15.3846 2.30769 15.3846H17.6923C17.8963 15.3846 18.092 15.3036 18.2362 15.1593C18.3805 15.0151 18.4615 14.8194 18.4615 14.6154V2.30769C18.4615 2.10368 18.3805 1.90802 18.2362 1.76376C18.092 1.61951 17.8963 1.53846 17.6923 1.53846H2.30769Z" fill="#1C9BF0"/>
<path d="M13.8463 7.69231C13.3898 7.69231 12.9437 7.55696 12.5642 7.30339C12.1847 7.04982 11.8889 6.6894 11.7142 6.26773C11.5396 5.84605 11.4939 5.38205 11.5829 4.9344C11.672 4.48676 11.8917 4.07556 12.2145 3.75283C12.5372 3.43009 12.9484 3.21031 13.3961 3.12126C13.8437 3.03222 14.3077 3.07792 14.7294 3.25258C15.1511 3.42725 15.5115 3.72303 15.765 4.10253C16.0186 4.48203 16.154 4.92819 16.154 5.38461C16.154 5.99665 15.9108 6.58362 15.4781 7.0164C15.0453 7.44917 14.4583 7.69231 13.8463 7.69231ZM13.8463 4.61538C13.6941 4.61538 13.5454 4.6605 13.4189 4.74502C13.2924 4.82955 13.1938 4.94968 13.1356 5.09024C13.0774 5.2308 13.0621 5.38547 13.0918 5.53468C13.1215 5.6839 13.1948 5.82096 13.3023 5.92854C13.4099 6.03612 13.547 6.10938 13.6962 6.13906C13.8454 6.16874 14.0001 6.15351 14.1406 6.09529C14.2812 6.03707 14.4013 5.93847 14.4859 5.81198C14.5704 5.68548 14.6155 5.53675 14.6155 5.38461C14.6155 5.1806 14.5345 4.98494 14.3902 4.84068C14.2459 4.69643 14.0503 4.61538 13.8463 4.61538Z" fill="#1C9BF0"/>
<path d="M17.6923 16.9231C17.5656 16.9224 17.441 16.8905 17.3296 16.8301C17.2182 16.7697 17.1235 16.6827 17.0538 16.5769L13.7153 11.5769C13.645 11.4722 13.5499 11.3864 13.4386 11.3271C13.3273 11.2678 13.203 11.2367 13.0769 11.2367C12.9507 11.2367 12.8265 11.2678 12.7152 11.3271C12.6038 11.3864 12.5088 11.4722 12.4384 11.5769L12.1769 11.9615C12.0567 12.1108 11.885 12.2098 11.6956 12.2392C11.5062 12.2685 11.3127 12.2261 11.1529 12.1202C10.9931 12.0144 10.8787 11.8526 10.8319 11.6668C10.7851 11.4809 10.8094 11.2843 10.9 11.1154L11.1538 10.7231C11.3643 10.4057 11.6501 10.1454 11.9856 9.96533C12.3212 9.78525 12.6961 9.69101 13.0769 9.69101C13.4577 9.69101 13.8326 9.78525 14.1681 9.96533C14.5037 10.1454 14.7895 10.4057 15 10.7231L18.3307 15.7308C18.4421 15.9004 18.4819 16.1071 18.4416 16.3059C18.4012 16.5047 18.284 16.6795 18.1153 16.7923C17.9915 16.8791 17.8435 16.9248 17.6923 16.9231Z" fill="#1C9BF0"/>
<path d="M2.30778 16.9231C2.16039 16.9227 2.01621 16.88 1.8924 16.8C1.72126 16.6896 1.60086 16.5159 1.5576 16.3169C1.51434 16.1179 1.55175 15.9099 1.66163 15.7385L6.45394 8.33847C6.66193 8.01709 6.94659 7.75249 7.2823 7.56853C7.61801 7.38456 7.99421 7.28699 8.37702 7.28462C8.75771 7.28448 9.13253 7.37852 9.46807 7.55837C9.80361 7.73822 10.0894 7.99829 10.3001 8.31539L15.2386 15.7308C15.3292 15.8997 15.3534 16.0963 15.3066 16.2822C15.2599 16.468 15.1454 16.6297 14.9856 16.7356C14.8258 16.8415 14.6323 16.8839 14.4429 16.8545C14.2535 16.8252 14.0819 16.7262 13.9616 16.5769L9.01548 9.16924C8.94579 9.06342 8.85105 8.97646 8.73967 8.91607C8.62829 8.85568 8.50371 8.82374 8.37702 8.82308C8.24961 8.82457 8.12458 8.85769 8.01314 8.91945C7.9017 8.98121 7.80735 9.06969 7.73855 9.17693L2.95394 16.5692C2.88444 16.6776 2.78886 16.7667 2.67598 16.8285C2.56309 16.8904 2.43649 16.9229 2.30778 16.9231Z" fill="#1C9BF0"/>
</svg>
