<svg width="99" height="101" viewBox="0 0 99 101" fill="none" xmlns="http://www.w3.org/2000/svg">
<mask id="path-1-outside-1_106_46" maskUnits="userSpaceOnUse" x="8.31085" y="8.07208" width="84" height="84" fill="black">
<rect fill="white" x="8.31085" y="8.07208" width="84" height="84"/>
<path fill-rule="evenodd" clip-rule="evenodd" d="M75.4501 72.5012C80.6955 66.618 83.8831 58.8604 83.8831 50.3582C83.8831 31.9748 68.9804 17.0721 50.597 17.0721C32.2136 17.0721 17.3109 31.9748 17.3109 50.3582C17.3109 68.7416 32.2136 83.6443 50.597 83.6443C56.9207 83.6443 62.8326 81.8809 67.8676 78.819L77.2364 80.8286L75.4501 72.5012Z"/>
</mask>
<path d="M75.4501 72.5012L69.2435 66.9675L66.4344 70.1181L67.3197 74.2452L75.4501 72.5012ZM67.8676 78.819L69.6117 70.6886L66.3752 69.9944L63.5471 71.7142L67.8676 78.819ZM77.2364 80.8286L75.4924 88.959L88.0633 91.6555L85.3668 79.0846L77.2364 80.8286ZM75.5678 50.3582C75.5678 56.7418 73.1833 62.5486 69.2435 66.9675L81.6567 78.0349C88.2077 70.6874 92.1984 60.9789 92.1984 50.3582H75.5678ZM50.597 25.3874C64.388 25.3874 75.5678 36.5672 75.5678 50.3582H92.1984C92.1984 27.3824 73.5728 8.75677 50.597 8.75677V25.3874ZM25.6262 50.3582C25.6262 36.5672 36.806 25.3874 50.597 25.3874V8.75677C27.6211 8.75677 8.99554 27.3824 8.99554 50.3582H25.6262ZM50.597 75.329C36.806 75.329 25.6262 64.1492 25.6262 50.3582H8.99554C8.99554 73.3341 27.6211 91.9597 50.597 91.9597V75.329ZM63.5471 71.7142C59.7772 74.0068 55.3542 75.329 50.597 75.329V91.9597C58.4873 91.9597 65.888 89.755 72.1882 85.9237L63.5471 71.7142ZM66.1236 86.9493L75.4924 88.959L78.9804 72.6982L69.6117 70.6886L66.1236 86.9493ZM85.3668 79.0846L83.5805 70.7572L67.3197 74.2452L69.106 82.5726L85.3668 79.0846Z" fill="black" mask="url(#path-1-outside-1_106_46)"/>
</svg>
